# xmcd
#
# Track frame offsets:
#  150
#  14661
#  28188
#  42557
#  55746
#  66957
#  81512
#  94353
#  108944
#  122070
#  135870
#  149200
#  161227
#  173611
#  187559
#  200809
#  212750
#  226436
#  239070
#  251224
#
# Disc length: 3537 seconds
#
# Revision: 0
# Processed by: cddbd v1.5.1PL2 Copyright (c) Steve Scherf et al.
# Submitted via: Collectorz.com_Music_Collector 6.11
#
DISCID=320dcf14
DTITLE=Billy Eckstine - Quadromania: I Ain't Like That [CD3)
DYEAR=2005
DGENRE=Pop Classic Band-Vocal - Pop Classic Vocal
TTITLE0=Everything I Have Is Yours
TTITLE1=Fools Rush in
TTITLE2=Blue Moon
TTITLE3=Temptation
TTITLE4=Mr. B's Blues
TTITLE5=Somehow
TTITLE6=Caravan
TTITLE7=Bewildered
TTITLE8=Body and Soul
TTITLE9=My Foolish Heart
TTITLE10=Ev'ryday I Fall in Love
TTITLE11=I Love You
TTITLE12=Dedicated to You
TTITLE13=You're All I Need
TTITLE14=I Wanna Be Loved
TTITLE15=You've Got Me Crying Again
TTITLE16=I've Never Been in Love Before
TTITLE17=As Long As I Live
TTITLE18=I Left My Hat in Haiti
TTITLE19=Here Comes the Blues
EXTD=
EXTT0=
EXTT1=
EXTT2=
EXTT3=
EXTT4=
EXTT5=
EXTT6=
EXTT7=
EXTT8=
EXTT9=
EXTT10=
EXTT11=
EXTT12=
EXTT13=
EXTT14=
EXTT15=
EXTT16=
EXTT17=
EXTT18=
EXTT19=
PLAYORDER=
